<svg version="1.0" id="katman_1" xmlns="http://www.w3.org/2000/svg" xmlns:xlink="http://www.w3.org/1999/xlink" x="0px" y="0px" viewBox="0 0 500 500" style="enable-background:new 0 0 500 500;" xml:space="preserve">
	<path fill="#808080" d="M136.36,0C61.14,0,0,61.14,0,136.36v227.27C0,438.86,61.14,500,136.36,500h227.27C438.86,500,500,438.86,500,363.64V136.36
	C500,61.14,438.86,0,363.64,0H136.36z M97.94,171.25c7.95,0,13.87,5.68,13.87,13.18c0,7.39-5.92,13.07-13.87,13.07
	c-8.07,0-13.96-5.69-13.96-13.07C83.98,176.94,89.88,171.25,97.94,171.25z M216.35,177.73c41.48,0,67.05,28.96,67.05,75.44
	c0,46.36-25.35,75.57-67.05,75.57c-41.93,0-67.38-29.1-67.38-75.57C148.97,206.58,174.99,177.73,216.35,177.73z M363.3,177.73
	c29.2,0,50.55,17.03,51.91,41.35H393.4c-2.16-13.3-13.63-21.57-30.45-21.57c-17.73,0-29.43,8.39-29.43,21.46
	c0,10.23,7.5,16.14,26.37,20.57l15.8,3.86c29.66,6.93,41.82,18.87,41.82,40.57c0,27.61-21.37,44.88-55.58,44.88
	c-31.93,0-53.41-16.46-55-42.26h22.17c1.93,13.64,15.33,22.37,34.53,22.37c17.96,0,31.14-9.31,31.14-22.15
	c0-10.91-8.3-17.49-27.39-22.04l-18.64-4.44c-26.02-6.14-37.95-18.75-37.95-39.88C310.79,194.78,331.83,177.73,363.3,177.73z
	 M216.35,198.53c-27.16,0-44.41,21.23-44.41,54.64c0,33.29,16.68,54.78,44.41,54.78c27.39,0,44.21-21.48,44.21-54.78
	C260.57,219.77,243.74,198.53,216.35,198.53z M87.27,216.6h21.37v108.75H87.27V216.6z"/>
</svg>
