<?xml version="1.0" encoding="UTF-8"?>


<svg xmlns="http://www.w3.org/2000/svg" xmlns:xlink="http://www.w3.org/1999/xlink" width="24px" height="19px" viewBox="0 0 24 19" version="1.1">
<g id="surface1">
<path style=" stroke:none;fill-rule:nonzero;fill:rgb(34.509804%,39.607843%,94.901961%);fill-opacity:1;" d="M 20.046875 1.691406 C 18.570312 0.972656 16.980469 0.445312 15.320312 0.140625 C 15.289062 0.140625 15.261719 0.152344 15.246094 0.183594 C 15.042969 0.566406 14.816406 1.0625 14.65625 1.460938 C 12.871094 1.175781 11.097656 1.175781 9.347656 1.460938 C 9.1875 1.058594 8.953125 0.566406 8.75 0.183594 C 8.734375 0.15625 8.703125 0.140625 8.671875 0.140625 C 7.011719 0.445312 5.425781 0.972656 3.945312 1.691406 C 3.929688 1.699219 3.921875 1.707031 3.914062 1.71875 C 0.902344 6.46875 0.078125 11.105469 0.484375 15.683594 C 0.484375 15.703125 0.496094 15.726562 0.515625 15.738281 C 2.5 17.277344 4.425781 18.214844 6.3125 18.832031 C 6.339844 18.84375 6.375 18.832031 6.394531 18.804688 C 6.839844 18.160156 7.238281 17.480469 7.582031 16.765625 C 7.601562 16.726562 7.582031 16.675781 7.539062 16.660156 C 6.910156 16.40625 6.308594 16.097656 5.726562 15.746094 C 5.683594 15.71875 5.679688 15.652344 5.722656 15.617188 C 5.84375 15.519531 5.964844 15.421875 6.082031 15.320312 C 6.101562 15.300781 6.132812 15.296875 6.15625 15.308594 C 9.957031 17.140625 14.070312 17.140625 17.828125 15.308594 C 17.855469 15.296875 17.882812 15.300781 17.902344 15.320312 C 18.019531 15.417969 18.140625 15.519531 18.265625 15.617188 C 18.308594 15.652344 18.304688 15.71875 18.261719 15.746094 C 17.679688 16.105469 17.078125 16.40625 16.445312 16.660156 C 16.40625 16.675781 16.386719 16.726562 16.40625 16.765625 C 16.757812 17.480469 17.152344 18.160156 17.589844 18.804688 C 17.609375 18.832031 17.644531 18.84375 17.671875 18.832031 C 19.574219 18.214844 21.496094 17.277344 23.484375 15.738281 C 23.5 15.726562 23.511719 15.703125 23.511719 15.683594 C 23.996094 10.390625 22.703125 5.796875 20.078125 1.722656 C 20.070312 1.707031 20.0625 1.699219 20.046875 1.691406 Z M 8.148438 12.894531 C 7.003906 12.894531 6.058594 11.785156 6.058594 10.421875 C 6.058594 9.0625 6.984375 7.949219 8.148438 7.949219 C 9.320312 7.949219 10.253906 9.070312 10.238281 10.421875 C 10.238281 11.785156 9.3125 12.894531 8.148438 12.894531 Z M 15.863281 12.894531 C 14.722656 12.894531 13.777344 11.785156 13.777344 10.421875 C 13.777344 9.0625 14.703125 7.949219 15.863281 7.949219 C 17.039062 7.949219 17.972656 9.070312 17.953125 10.421875 C 17.953125 11.785156 17.039062 12.894531 15.863281 12.894531 Z M 15.863281 12.894531 "/>
</g>
</svg>
