<?xml version="1.0" encoding="utf-8"?>


<svg xmlns="http://www.w3.org/2000/svg" xmlns:xlink="http://www.w3.org/1999/xlink" width="500" height="583.50" viewBox="0 0 500 583.50" style="fill: url(#g1)">
    <rect x="15.00" y="100.00" width="471.70" height="471.70" fill="#EDF1FF" fill-opacity="0.6"/>
    <g transform="scale(20.83) translate(0 0)">
        <path d="M1.3,28L22.6,28c0.7,0,1.3-0.6,1.3-1.3L24,1.4c0-0.7-0.6-1.3-1.3-1.3L1.4,0C0.7,0,0.1,0.6,0,1.3L0,26.6 C-0.1,27.4,0.5,28,1.3,28z M1,6c0-0.6,0.5-1,1-1L22,5c0.6,0,1,0.5,1,1L23,26c0,0.6-0.5,1-1,1L2,27c-0.6,0-1-0.5-1-1L1,6z"/>
    </g>
    <g transform="scale(0.85) translate(43.48 142.86)">
        <svg xmlns="http://www.w3.org/2000/svg" version="1.1" width="500" height="500" viewBox="0 0 500 500">
            <g transform="scale(23.81)">
                <g transform="translate(0,0)">
                    <defs>
                        <linearGradient gradientUnits="userSpaceOnUse" x1="0" y1="0" x2="0" y2="21" id="g1">
                            <stop offset="0%" style="stop-color: #1990ff"/>
                            <stop offset="100%" style="stop-color: #0f2cff"/>
                        </linearGradient>
                    </defs>
                    <path d="M8 0L8 1L9 1L9 3L8 3L8 8L6 8L6 9L5 9L5 8L4 8L4 9L3 9L3 10L2 10L2 13L3 13L3 12L5 12L5 13L8 13L8 15L9 15L9 14L10 14L10 13L11 13L11 14L12 14L12 15L11 15L11 18L10 18L10 17L9 17L9 16L8 16L8 17L9 17L9 18L10 18L10 19L9 19L9 20L8 20L8 21L13 21L13 18L12 18L12 17L14 17L14 19L15 19L15 21L16 21L16 19L15 19L15 18L16 18L16 16L15 16L15 15L17 15L17 16L18 16L18 17L17 17L17 21L19 21L19 20L20 20L20 21L21 21L21 19L19 19L19 17L20 17L20 18L21 18L21 17L20 17L20 16L21 16L21 15L20 15L20 14L21 14L21 12L17 12L17 14L15 14L15 13L16 13L16 11L15 11L15 9L17 9L17 11L19 11L19 9L18 9L18 8L13 8L13 6L12 6L12 5L13 5L13 3L12 3L12 2L13 2L13 1L10 1L10 0ZM10 4L10 5L9 5L9 7L10 7L10 8L11 8L11 7L12 7L12 6L11 6L11 7L10 7L10 5L12 5L12 4ZM0 8L0 10L1 10L1 8ZM12 8L12 9L10 9L10 10L9 10L9 9L8 9L8 10L7 10L7 9L6 9L6 10L3 10L3 11L6 11L6 12L7 12L7 11L8 11L8 13L10 13L10 10L12 10L12 12L11 12L11 13L12 13L12 12L13 12L13 13L14 13L14 12L15 12L15 11L14 11L14 9L13 9L13 8ZM20 8L20 9L21 9L21 8ZM12 9L12 10L13 10L13 9ZM6 10L6 11L7 11L7 10ZM20 10L20 11L21 11L21 10ZM0 11L0 13L1 13L1 11ZM13 11L13 12L14 12L14 11ZM13 14L13 15L14 15L14 14ZM17 14L17 15L18 15L18 14ZM19 15L19 16L20 16L20 15ZM14 16L14 17L15 17L15 16ZM11 18L11 19L10 19L10 20L11 20L11 19L12 19L12 18ZM18 19L18 20L19 20L19 19ZM0 0L7 0L7 7L0 7ZM1 1L1 6L6 6L6 1ZM2 2L5 2L5 5L2 5ZM14 0L21 0L21 7L14 7ZM15 1L15 6L20 6L20 1ZM16 2L19 2L19 5L16 5ZM0 14L7 14L7 21L0 21ZM1 15L1 20L6 20L6 15ZM2 16L5 16L5 19L2 19Z" style="fill-rule: evenodd; fill: url(#g1)"/>
                </g>
            </g>
        </svg>
    </g>
    <svg>
        <text x="50%" y="10%" style="dominant-baseline: middle; text-anchor: middle; font-weight: bold; font-size: 40.00px; fill: #EDF1FF; font-family: Trebuchet MS, sans-serif">Sample text ✨</text>
    </svg>
</svg>
