

<svg viewBox="0 0 24 24" xmlns="http://www.w3.org/2000/svg"><g data-name="Layer 2"><path d="M0 0h24v24H0z" fill="none"></path><path d="M8 8h3v3H8zM14 14h2v2h-2zM8 13v3" stroke="#f5f5f5" stroke-linecap="round" stroke-linejoin="round" fill="none" class="stroke-000000"></path><path d="M10 13v3h2v-4h4M16 10h-3V8h3M8 5H6a1 1 0 0 0-1 1v2M16 5h2a1 1 0 0 1 1 1v2M19 16v2a1 1 0 0 1-1 1h-2M8 19H6a1 1 0 0 1-1-1v-2" stroke="#f5f5f5" stroke-linecap="round" stroke-linejoin="round" fill="none" class="stroke-000000"></path></g></svg>
